<?xml version="1.0" encoding="UTF-8" standalone="no"?>
<!-- Created with Inkscape (http://www.inkscape.org/) -->

<svg
   version="1.1"
   id="svg2"
   xml:space="preserve"
   width="711.4657"
   height="132.67867"
   viewBox="0 0 711.4657 132.67867"
   sodipodi:docname="ff4ce9f053c371d6b5625dcefe6aabdd.ai"
   xmlns:inkscape="http://www.inkscape.org/namespaces/inkscape"
   xmlns:sodipodi="http://sodipodi.sourceforge.net/DTD/sodipodi-0.dtd"
   xmlns="http://www.w3.org/2000/svg"
   xmlns:svg="http://www.w3.org/2000/svg"><defs
     id="defs6"><clipPath
       clipPathUnits="userSpaceOnUse"
       id="clipPath16"><path
         d="m 108.2,175.245 h 533.6 v 99.509 H 108.2 Z"
         id="path14" /></clipPath></defs><sodipodi:namedview
     id="namedview4"
     pagecolor="#ffffff"
     bordercolor="#666666"
     borderopacity="1.0"
     inkscape:pageshadow="2"
     inkscape:pageopacity="0.0"
     inkscape:pagecheckerboard="0" /><g
     id="g8"
     inkscape:groupmode="layer"
     inkscape:label="ff4ce9f053c371d6b5625dcefe6aabdd"
     transform="matrix(1.3333333,0,0,-1.3333333,-144.26706,366.33866)"><g
       id="g10"><g
         id="g12"
         clip-path="url(#clipPath16)"><g
           id="g18"
           transform="translate(147.2783,220.0428)"><path
             d="m 0,0 v -34.735 c 0.272,-2.425 0.706,-4.113 1.364,-5.041 0.769,-1.118 2.277,-1.876 4.555,-2.274 l 3.947,-0.418 v -2.33 h -48.944 v 2.33 l 5.502,0.588 c 2.118,0.379 3.593,1.213 4.427,2.483 0.835,1.232 1.38,3.373 1.589,6.386 l 0.24,6.689 V 54.576 H 0 V 9.986 l 1.379,1.896 c 0.851,1.155 1.75,2.387 2.696,3.676 1.908,2.596 3.834,5.23 5.775,7.883 1.941,2.691 3.914,5.401 5.919,8.129 3.978,5.496 6.658,9.343 8.004,11.541 1.365,2.198 2.038,3.998 2.038,5.382 0,1.212 -0.384,2.066 -1.154,2.595 -0.77,0.513 -1.812,0.854 -3.129,1.025 l -5.165,0.397 v 2.066 H 49.169 V 52.51 c -0.963,-0.095 -1.957,-0.152 -2.984,-0.208 -1.01,-0.038 -2.278,-0.228 -3.738,-0.569 -1.46,-0.36 -3,-1.042 -4.572,-2.084 -1.588,-1.042 -3.433,-2.938 -5.566,-5.704 L 21.304,29.05 l -5.487,-7.448 41.18,-66.4 H 34.394 L 4.171,5.799 2.968,4.149 Z"
             style="fill:#f4981d;fill-opacity:1;fill-rule:nonzero;stroke:none"
             id="path20" /></g><g
           id="g22"
           transform="translate(259.8133,248.1325)"><path
             d="m 0,0 v 2.994 l 35.916,5.984 v -61.792 c 0,-5.166 0.555,-8.748 1.671,-10.739 1.115,-2.001 3.137,-2.994 6.074,-2.994 1.993,0 3.901,0.763 5.721,2.289 1.818,1.522 3.403,3.401 4.753,5.632 1.348,2.23 2.434,4.604 3.259,7.129 0.819,2.524 1.232,4.785 1.232,6.781 v 46.3 L 49.294,0 v 2.994 l 35.739,5.984 v -76.934 h 9.33 v -2.818 h -36.09 v 11.796 c -1.76,-3.64 -4.374,-6.865 -7.834,-9.683 -3.463,-2.818 -8.305,-4.226 -14.523,-4.226 -17.606,0 -26.409,9.565 -26.409,28.698 V 1.584 Z"
             style="fill:#adce70;fill-opacity:1;fill-rule:nonzero;stroke:none"
             id="path24" /></g><g
           id="g26"
           transform="translate(468.1845,179.2816)"><path
             d="M 0,0 V -2.377 H -38.313 V 0 h 8.018 v 60.288 l -8.018,-1.333 v 2.522 l 30.295,4.754 V 0 Z m -11.138,75.288 c -2.278,-2.276 -5.049,-3.415 -8.315,-3.415 -3.267,0 -6.04,1.139 -8.316,3.415 -2.279,2.276 -3.415,5.048 -3.415,8.317 0,3.268 1.136,6.037 3.415,8.315 2.276,2.278 5.049,3.417 8.316,3.417 3.266,0 6.037,-1.139 8.315,-3.417 2.275,-2.278 3.417,-5.047 3.417,-8.315 0,-3.269 -1.142,-6.041 -3.417,-8.317"
             style="fill:#adce70;fill-opacity:1;fill-rule:nonzero;stroke:none"
             id="path28" /></g><g
           id="g30"
           transform="translate(569.1269,256.6845)"><path
             d="m 0,0 c 4.522,-0.923 8.246,-2.487 11.166,-4.702 2.922,-2.214 5.039,-5.104 6.356,-8.667 1.317,-3.573 1.977,-7.935 1.977,-13.098 v -38.738 c 0,-2.953 0.314,-5.26 0.946,-6.916 0.628,-1.661 2.086,-2.49 4.381,-2.49 1.945,0 3.289,0.672 4.037,2.028 0.744,1.349 1.289,2.949 1.632,4.794 0.112,1.108 0.572,1.661 1.376,1.661 0.684,0 1.028,-0.492 1.028,-1.476 0,-1.353 -0.2,-2.829 -0.599,-4.424 -0.403,-1.599 -1.262,-3.075 -2.579,-4.428 -1.317,-1.355 -3.176,-2.522 -5.583,-3.507 -2.405,-0.98 -5.671,-1.477 -9.792,-1.477 -5.842,0 -10.309,0.959 -13.402,2.861 -3.092,1.906 -5.155,4.151 -6.184,6.735 -0.919,-0.989 -2.036,-2.03 -3.352,-3.137 -1.318,-1.107 -2.833,-2.152 -4.552,-3.137 -1.719,-0.984 -3.694,-1.779 -5.928,-2.398 -2.232,-0.612 -4.783,-0.924 -7.644,-0.924 -4.356,0 -8.161,0.647 -11.426,1.938 -3.265,1.291 -5.987,3.046 -8.162,5.259 -2.177,2.215 -3.809,4.824 -4.895,7.838 -1.091,3.015 -1.634,6.182 -1.634,9.5 0,3.198 0.573,6.365 1.719,9.498 1.144,3.137 2.891,5.936 5.241,8.397 2.346,2.455 5.266,4.455 8.76,5.991 3.493,1.538 7.588,2.307 12.286,2.307 h 18.556 v 14.759 c 0,4.424 -0.632,7.868 -1.891,10.329 -1.262,2.456 -4.01,3.691 -8.245,3.691 -4.698,0 -7.905,-0.342 -9.623,-1.016 -1.717,-0.681 -2.576,-1.506 -2.576,-2.49 0,-0.739 0.399,-1.353 1.203,-1.845 2.172,-1.477 3.263,-3.753 3.263,-6.824 0,-0.738 -0.114,-1.661 -0.343,-2.768 -0.232,-1.107 -0.687,-2.121 -1.376,-3.045 -0.687,-0.923 -1.631,-1.722 -2.834,-2.399 -1.203,-0.676 -2.778,-1.014 -4.725,-1.014 -2.405,0 -4.552,0.769 -6.442,2.307 -1.89,1.538 -2.834,4.085 -2.834,7.658 0,4.916 2.462,8.602 7.386,11.067 4.924,2.456 11.168,3.686 18.728,3.686 C -10.053,1.384 -4.526,0.922 0,0 m -13.316,-34.033 c -4.697,0 -8.047,-2.092 -10.051,-6.27 -2.005,-4.182 -3.008,-9.656 -3.008,-16.419 0,-6.889 0.602,-11.836 1.805,-14.845 1.203,-3.018 3.236,-4.521 6.1,-4.521 0.687,0 1.719,0.307 3.092,0.923 1.374,0.614 2.75,1.383 4.124,2.307 1.373,0.922 2.548,1.963 3.522,3.132 0.971,1.168 1.461,2.306 1.461,3.413 v 32.28 z"
             style="fill:#adce70;fill-opacity:1;fill-rule:nonzero;stroke:none"
             id="path32" /></g><g
           id="g34"
           transform="translate(401.384,176.6322)"><path
             d="m 0,0 v 48.813 c 0,4.601 -0.547,7.765 -1.644,9.49 -1.097,1.726 -2.957,2.589 -5.587,2.589 -2.85,0 -4.904,-1.015 -6.163,-3.04 -1.263,-2.028 -1.891,-5.372 -1.891,-10.026 V 0 h -22.269 v 80.615 h 20.707 V 68.124 c 2.904,4.489 6.176,7.834 9.821,10.025 3.643,2.189 7.766,3.287 12.367,3.287 6.299,0 10.684,-1.78 13.148,-5.341 2.467,-3.564 3.699,-10.574 3.699,-21.037 L 22.188,0 Z"
             style="fill:#adce70;fill-opacity:1;fill-rule:nonzero;stroke:none"
             id="path36" /></g><g
           id="g38"
           transform="translate(498.8116,274.6184)"><path
             d="m 0,0 2.935,0.136 v -17.645 h 8.793 V -34.847 H 2.935 v -63.276 h -22.188 v 63.276 h -8.792 v 17.338 h 8.792 C -6.164,-17.509 0,0 0,0"
             style="fill:#adce70;fill-opacity:1;fill-rule:nonzero;stroke:none"
             id="path40" /></g><g
           id="g42"
           transform="translate(630.0716,274.6184)"><path
             d="m 0,0 2.935,0.136 v -17.645 h 8.793 V -34.847 H 2.935 v -63.276 h -22.188 v 63.276 h -8.792 v 17.338 h 8.792 C -6.164,-17.509 0,0 0,0"
             style="fill:#adce70;fill-opacity:1;fill-rule:nonzero;stroke:none"
             id="path44" /></g><g
           id="g46"
           transform="translate(249.2213,267.3345)"><path
             d="m 0,0 c 2.778,-4.855 4.166,-11.753 4.166,-20.694 0,-8.94 -1.388,-15.826 -4.166,-20.656 -2.776,-4.831 -7.614,-7.246 -14.511,-7.246 -6.899,0 -11.735,2.415 -14.512,7.246 -2.777,4.83 -4.165,11.716 -4.165,20.656 0,8.941 1.388,15.839 4.165,20.694 2.777,4.857 7.613,7.284 14.512,7.284 C -7.614,7.284 -2.776,4.857 0,0 m -20.787,-34.981 c 1.021,-3.301 3.112,-4.949 6.276,-4.949 3.162,0 5.234,1.648 6.219,4.949 0.984,3.299 1.476,8.061 1.476,14.287 0,6.524 -0.492,11.356 -1.476,14.493 -0.985,3.138 -3.057,4.707 -6.219,4.707 -3.164,0 -5.255,-1.569 -6.276,-4.707 -1.021,-3.137 -1.532,-7.969 -1.532,-14.493 0,-6.226 0.511,-10.988 1.532,-14.287"
             style="fill:#f4981d;fill-opacity:1;fill-rule:nonzero;stroke:none"
             id="path48" /></g><g
           id="g50"
           transform="translate(243.5508,216.1776)"><path
             d="M 0,0 H 14.521 V -40.932 H 5.117 v 27.686 c 0,0.795 0.011,1.912 0.033,3.346 0.021,1.435 0.033,2.541 0.033,3.319 l -9.152,-34.351 h -9.809 l -9.087,34.351 c 0,-0.778 0.012,-1.884 0.033,-3.319 0.021,-1.434 0.033,-2.551 0.033,-3.346 v -27.686 h -9.404 V 0 h 14.686 l 8.792,-32.185 z"
             style="fill:#f4981d;fill-opacity:1;fill-rule:nonzero;stroke:none"
             id="path52" /></g></g></g></g></svg>
